<?xml version="1.0" encoding="UTF-8" standalone="no"?>
<svg
   version="1.1"
   viewBox="0 0 354.77396 197.72964"
   fill="none"
   stroke="none"
   stroke-linecap="square"
   stroke-miterlimit="10"
   id="svg3121"
   sodipodi:docname="logo-box.svg"
   width="354.77396"
   height="197.72964"
   inkscape:version="1.2.2 (b0a8486, 2022-12-01)"
   xmlns:inkscape="http://www.inkscape.org/namespaces/inkscape"
   xmlns:sodipodi="http://sodipodi.sourceforge.net/DTD/sodipodi-0.dtd"
   xmlns="http://www.w3.org/2000/svg"
   xmlns:svg="http://www.w3.org/2000/svg">
  <defs
     id="defs3125" />
  <sodipodi:namedview
     id="namedview3123"
     pagecolor="#ffffff"
     bordercolor="#000000"
     borderopacity="0.25"
     inkscape:showpageshadow="2"
     inkscape:pageopacity="0.0"
     inkscape:pagecheckerboard="true"
     inkscape:deskcolor="#d1d1d1"
     showgrid="false"
     inkscape:zoom="1.2979167"
     inkscape:cx="140.22472"
     inkscape:cy="48.924559"
     inkscape:window-width="1390"
     inkscape:window-height="1205"
     inkscape:window-x="0"
     inkscape:window-y="23"
     inkscape:window-maximized="0"
     inkscape:current-layer="g3119" />
  <clipPath
     id="g2016970a3e9_0_0.0">
    <path
       d="M 0,0 H 960 V 540 H 0 Z"
       clip-rule="nonzero"
       id="path3088" />
  </clipPath>
  <g
     clip-path="url(#g2016970a3e9_0_0.0)"
     id="g3119"
     transform="translate(-340.13781,-221.33728)">
    <path
       fill="#ffffff"
       d="M 0,0 H 960 V 540 H 0 Z"
       fill-rule="evenodd"
       id="path3091"
       style="fill:none" />
    <path
       fill="#f9cb9c"
       d="m 397.2651,298.60367 -56.62732,-35.02625 46.70343,-41.74015 57.79263,36.48558"
       fill-rule="evenodd"
       id="path3093" />
    <path
       stroke="#000000"
       stroke-width="1"
       stroke-linejoin="round"
       stroke-linecap="butt"
       d="m 397.2651,298.60367 -56.62732,-35.02625 46.70343,-41.74015 57.79263,36.48558"
       fill-rule="evenodd"
       id="path3095" />
    <path
       fill="#f9cb9c"
       d="m 445.28085,258.46982 -48.3071,39.84253 24.66403,45.09973 71.51444,-63.19687 z"
       fill-rule="evenodd"
       id="path3097" />
    <path
       stroke="#000000"
       stroke-width="1"
       stroke-linejoin="round"
       stroke-linecap="butt"
       d="m 445.28085,258.46982 -48.3071,39.84253 24.66403,45.09973 71.51444,-63.19687 z"
       fill-rule="evenodd"
       id="path3099" />
    <path
       fill="#f9cb9c"
       d="M 444.97375,258.31497 H 639.36743 V 378.56692 H 444.97375 Z"
       fill-rule="evenodd"
       id="path3101" />
    <path
       stroke="#000000"
       stroke-width="1"
       stroke-linejoin="round"
       stroke-linecap="butt"
       d="M 444.97375,258.31497 H 639.36743 V 378.56692 H 444.97375 Z"
       fill-rule="evenodd"
       id="path3103" />
    <path
       fill="#f9cb9c"
       d="M 396.97375,298.31497 H 591.36743 V 418.56692 H 396.97375 Z"
       fill-rule="evenodd"
       id="path3105" />
    <path
       stroke="#000000"
       stroke-width="1"
       stroke-linejoin="round"
       stroke-linecap="butt"
       d="M 396.97375,298.31497 H 591.36743 V 418.56692 H 396.97375 Z"
       fill-rule="evenodd"
       id="path3107" />
    <path
       fill="#000000"
       d="m 430.7624,360.32532 v -3.28125 l 18.96875,-8.01563 v 3.5 l -15.04687,6.17188 15.04687,6.23437 v 3.48438 z m 24.10938,12.51562 v -28.64062 h 10.73437 q 3.28125,0 5.26563,0.875 1.98437,0.875 3.10937,2.6875 1.125,1.79687 1.125,3.76562 0,1.84375 -1,3.46875 -1,1.60938 -3.01562,2.60938 2.60937,0.76562 4,2.60937 1.39062,1.82813 1.39062,4.32813 0,2 -0.84375,3.73437 -0.84375,1.73438 -2.09375,2.67188 -1.25,0.9375 -3.14062,1.42187 -1.89063,0.46875 -4.625,0.46875 z m 3.78125,-16.60937 h 6.1875 q 2.53125,0 3.625,-0.32813 1.4375,-0.42187 2.17187,-1.42187 0.73438,-1 0.73438,-2.5 0,-1.42188 -0.6875,-2.5 -0.6875,-1.09375 -1.95313,-1.48438 -1.26562,-0.40625 -4.35937,-0.40625 h -5.71875 z m 0,13.23437 h 7.125 q 1.84375,0 2.57812,-0.14062 1.3125,-0.23438 2.1875,-0.78125 0.89063,-0.54688 1.45313,-1.59375 0.5625,-1.04688 0.5625,-2.40625 0,-1.60938 -0.82813,-2.78125 -0.8125,-1.1875 -2.26562,-1.65625 -1.45313,-0.48438 -4.1875,-0.48438 h -6.625 z m 21.89843,-10.57812 q 0,-7.125 3.82813,-11.15625 3.82812,-4.03125 9.875,-4.03125 3.96875,0 7.15625,1.89062 3.1875,1.89063 4.84375,5.28125 1.67187,3.39063 1.67187,7.6875 0,4.35938 -1.76562,7.79688 -1.75,3.4375 -4.96875,5.20312 -3.21875,1.76563 -6.95313,1.76563 -4.04687,0 -7.23437,-1.95313 -3.17188,-1.95312 -4.8125,-5.32812 -1.64063,-3.375 -1.64063,-7.15625 z m 3.90625,0.0625 q 0,5.17187 2.78125,8.15625 2.78125,2.98437 6.98438,2.98437 4.28125,0 7.03125,-3 2.76562,-3.01562 2.76562,-8.54687 0,-3.5 -1.1875,-6.10938 -1.17187,-2.60937 -3.45312,-4.03125 -2.26563,-1.4375 -5.09375,-1.4375 -4.03125,0 -6.9375,2.76563 -2.89063,2.75 -2.89063,9.21875 z m 27.06641,4.6875 3.57812,-0.3125 q 0.25,2.15625 1.17188,3.53125 0.9375,1.375 2.89062,2.23437 1.95313,0.84375 4.39063,0.84375 2.17187,0 3.82812,-0.64062 1.65625,-0.65625 2.46875,-1.78125 0.8125,-1.125 0.8125,-2.45313 0,-1.34375 -0.78125,-2.34375 -0.78125,-1.01562 -2.57812,-1.6875 -1.15625,-0.45312 -5.10938,-1.39062 -3.9375,-0.95313 -5.51562,-1.79688 -2.04688,-1.07812 -3.0625,-2.67187 -1,-1.59375 -1,-3.5625 0,-2.17188 1.23437,-4.04688 1.23438,-1.89062 3.59375,-2.85937 2.35938,-0.98438 5.25,-0.98438 3.1875,0 5.60938,1.03125 2.4375,1.01563 3.75,3.01563 1.3125,1.98437 1.40625,4.51562 l -3.64063,0.26563 q -0.28125,-2.71875 -1.98437,-4.09375 -1.6875,-1.39063 -4.98438,-1.39063 -3.4375,0 -5.01562,1.26563 -1.5625,1.25 -1.5625,3.03125 0,1.54687 1.10937,2.53125 1.09375,1 5.70313,2.04687 4.625,1.04688 6.34375,1.82813 2.5,1.15625 3.6875,2.92187 1.20312,1.76563 1.20312,4.0625 0,2.29688 -1.3125,4.3125 -1.3125,2.01563 -3.76562,3.14063 -2.4375,1.125 -5.51563,1.125 -3.875,0 -6.51562,-1.125 -2.625,-1.14063 -4.125,-3.40625 -1.48438,-2.28125 -1.5625,-5.15625 z m 46.03906,-3.3125 -18.96875,8.09375 v -3.48438 l 15.01563,-6.23437 -15.01563,-6.17188 v -3.5 l 18.96875,8.01563 z"
       fill-rule="nonzero"
       id="path3109" />
    <path
       fill="#f9cb9c"
       d="m 591.3123,418.40683 48,-40 V 258.43832 l -47.93701,40 z"
       fill-rule="evenodd"
       id="path3111" />
    <path
       stroke="#000000"
       stroke-width="1"
       stroke-linejoin="round"
       stroke-linecap="butt"
       d="m 591.3123,418.40683 48,-40 V 258.43832 l -47.93701,40 z"
       fill-rule="evenodd"
       id="path3113" />
    <path
       fill="#f9cb9c"
       d="m 591.958,298.021 62.46454,-33.2756 39.9895,-41.74015 -55.16797,35.02625 z"
       fill-rule="evenodd"
       id="path3115" />
    <path
       stroke="#000000"
       stroke-width="1"
       stroke-linejoin="round"
       stroke-linecap="butt"
       d="m 591.958,298.021 62.46454,-33.2756 39.9895,-41.74015 -55.16797,35.02625 z"
       fill-rule="evenodd"
       id="path3117" />
  </g>
</svg>
